<svg width="40" height="39" viewBox="0 0 40 39" fill="none" xmlns="http://www.w3.org/2000/svg">
<path d="M21.4566 19.7503L35.0941 19.7203" stroke="#231F20" stroke-linecap="round" stroke-linejoin="round"/>
<path d="M26.7821 5.80118L4.17963 18.9087" stroke="#231F20" stroke-linecap="round" stroke-linejoin="round"/>
<path d="M18.9015 21.2233L12.0802 33.0358" stroke="#231F20" stroke-linecap="round" stroke-linejoin="round"/>
<path d="M28.1984 32.8167V6.68542" stroke="#231F20" stroke-linecap="round" stroke-linejoin="round"/>
<path d="M20.7363 21.4549L27.4238 33.0362" stroke="#231F20" stroke-linecap="round" stroke-linejoin="round"/>
<path d="M12.0806 6.46481L18.9019 18.2773" stroke="#231F20" stroke-linecap="round" stroke-linejoin="round"/>
<path fill-rule="evenodd" clip-rule="evenodd" d="M20.9575 18.5451C21.6237 19.2113 21.6237 20.2901 20.9575 20.9551C20.2912 21.6213 19.2125 21.6213 18.5463 20.9551C17.8813 20.2901 17.8813 19.2113 18.5463 18.5451C19.2125 17.8788 20.2912 17.8788 20.9575 18.5451Z" stroke="#231F20"/>
<path fill-rule="evenodd" clip-rule="evenodd" d="M20.9575 1.49969C21.6237 2.16594 21.6237 3.24469 20.9575 3.90969C20.2912 4.57594 19.2125 4.57594 18.5463 3.90969C17.8813 3.24469 17.8813 2.16594 18.5463 1.49969C19.2125 0.833438 20.2912 0.833438 20.9575 1.49969Z" stroke="#231F20"/>
<path fill-rule="evenodd" clip-rule="evenodd" d="M38.005 20.9557C37.3387 21.6219 36.26 21.6219 35.5938 20.9557C34.9288 20.2894 34.9288 19.2107 35.5938 18.5457C36.26 17.8794 37.3387 17.8794 38.005 18.5457C38.6712 19.2107 38.6712 20.2894 38.005 20.9557Z" stroke="#231F20"/>
<path fill-rule="evenodd" clip-rule="evenodd" d="M19.752 38.5003C18.8107 38.5003 18.047 37.7366 18.047 36.7953C18.047 35.8541 18.8107 35.0916 19.752 35.0916C20.6932 35.0916 21.457 35.8541 21.457 36.7953C21.457 37.7366 20.6932 38.5003 19.752 38.5003Z" stroke="#231F20"/>
<path fill-rule="evenodd" clip-rule="evenodd" d="M3.91 20.9557C3.24375 21.6219 2.165 21.6219 1.49875 20.9557C0.83375 20.2894 0.83375 19.2107 1.49875 18.5457C2.165 17.8794 3.24375 17.8794 3.91 18.5457C4.57625 19.2107 4.57625 20.2894 3.91 20.9557Z" stroke="#231F20"/>
<path fill-rule="evenodd" clip-rule="evenodd" d="M36.1622 11.6688C35.9185 12.5776 34.9835 13.1176 34.0747 12.8738C33.1647 12.6301 32.6247 11.6963 32.8685 10.7863C33.1122 9.87757 34.0472 9.33757 34.9572 9.58132C35.866 9.82507 36.406 10.7601 36.1622 11.6688Z" stroke="#231F20"/>
<path fill-rule="evenodd" clip-rule="evenodd" d="M29.1281 35.9883C28.3131 36.4596 27.2706 36.1796 26.7994 35.3646C26.3281 34.5496 26.6081 33.5071 27.4231 33.0358C28.2381 32.5658 29.2819 32.8446 29.7519 33.6596C30.2231 34.4746 29.9431 35.5171 29.1281 35.9883Z" stroke="#231F20"/>
<path fill-rule="evenodd" clip-rule="evenodd" d="M6.63512 28.7142C6.39137 29.6229 5.45637 30.1629 4.54762 29.9192C3.63762 29.6754 3.09762 28.7417 3.34137 27.8317C3.58512 26.9229 4.52012 26.3829 5.43012 26.6267C6.33887 26.8704 6.87887 27.8054 6.63512 28.7142Z" stroke="#231F20"/>
<path fill-rule="evenodd" clip-rule="evenodd" d="M4.54725 9.5812C5.45725 9.33745 6.391 9.87745 6.63475 10.7862C6.8785 11.6962 6.3385 12.6299 5.42975 12.8737C4.51975 13.1174 3.586 12.5787 3.34225 11.6687C3.0985 10.7599 3.63725 9.82495 4.54725 9.5812Z" stroke="#231F20"/>
<path fill-rule="evenodd" clip-rule="evenodd" d="M29.9224 4.54743C30.1661 5.45618 29.6261 6.39118 28.7174 6.63493C27.8074 6.87868 26.8724 6.33868 26.6286 5.42993C26.3849 4.51993 26.9249 3.58618 27.8349 3.34243C28.7436 3.09868 29.6786 3.63868 29.9224 4.54743Z" stroke="#231F20"/>
<path fill-rule="evenodd" clip-rule="evenodd" d="M35.9919 29.1253C35.5206 29.9403 34.4781 30.2203 33.6631 29.7491C32.8481 29.2791 32.5681 28.2366 33.0394 27.4203C33.5094 26.6053 34.5531 26.3266 35.3681 26.7966C36.1831 27.2678 36.4631 28.3103 35.9919 29.1253Z" stroke="#231F20"/>
<path fill-rule="evenodd" clip-rule="evenodd" d="M12.8749 34.0709C13.1186 34.9797 12.5786 35.9147 11.6699 36.1584C10.7599 36.4022 9.82488 35.8622 9.58113 34.9534C9.33738 34.0434 9.87738 33.1097 10.7874 32.8659C11.6961 32.6222 12.6311 33.1622 12.8749 34.0709Z" stroke="#231F20"/>
<path fill-rule="evenodd" clip-rule="evenodd" d="M11.6695 3.34218C12.5795 3.58593 13.1182 4.52093 12.8745 5.42968C12.6307 6.33968 11.697 6.87843 10.787 6.63468C9.877 6.39093 9.33825 5.45718 9.582 4.54718C9.82575 3.63843 10.7595 3.09843 11.6695 3.34218Z" stroke="#231F20"/>
</svg>
