<svg width="38" height="42" viewBox="0 0 38 42" fill="none" xmlns="http://www.w3.org/2000/svg">
<path d="M33.9824 12.0055L19.8967 20.1016" stroke="white" stroke-linecap="round" stroke-linejoin="round"/>
<path d="M34.2197 19.5173L19.889 27.8201" stroke="white" stroke-linecap="round" stroke-linejoin="round"/>
<path d="M28.2333 6.75644L19.8804 11.5925" stroke="white" stroke-linecap="round" stroke-linejoin="round"/>
<path fill-rule="evenodd" clip-rule="evenodd" d="M18.3233 22.8185C17.3208 22.8185 16.5073 22.0038 16.5073 20.9998C16.5073 19.9957 17.3208 19.1824 18.3233 19.1824C19.3258 19.1824 20.1393 19.9957 20.1393 20.9998C20.1393 22.0038 19.3258 22.8185 18.3233 22.8185Z" stroke="white"/>
<path d="M35.4461 12.8183C34.4436 31.4932 18.245 41 18.245 41C18.245 41 1 30.8759 1 10.9996" stroke="white" stroke-linecap="round" stroke-linejoin="round"/>
<path d="M1.00061 11.0001C4.76302 8.82677 18.2443 1 18.2443 1C18.2443 1 30.1812 7.74676 33.9436 10.0655" stroke="white" stroke-linecap="round" stroke-linejoin="round"/>
<path fill-rule="evenodd" clip-rule="evenodd" d="M35.4947 9.18182C36.4972 9.18182 37.3106 9.9965 37.3106 11.0005C37.3106 12.0045 36.4972 12.8179 35.4947 12.8179C34.4922 12.8179 33.6787 12.0045 33.6787 11.0005C33.6787 9.9965 34.4922 9.18182 35.4947 9.18182Z" stroke="white"/>
<path fill-rule="evenodd" clip-rule="evenodd" d="M18.3233 26.9094C19.3258 26.9094 20.1393 27.7241 20.1393 28.7281C20.1393 29.7321 19.3258 30.5455 18.3233 30.5455C17.3208 30.5455 16.5073 29.7321 16.5073 28.7281C16.5073 27.7241 17.3208 26.9094 18.3233 26.9094Z" stroke="white"/>
<path fill-rule="evenodd" clip-rule="evenodd" d="M18.3233 14.3335C17.3208 14.3335 16.5073 13.5188 16.5073 12.5148C16.5073 11.5108 17.3208 10.6974 18.3233 10.6974C19.3258 10.6974 20.1393 11.5108 20.1393 12.5148C20.1393 13.5188 19.3258 14.3335 18.3233 14.3335Z" stroke="white"/>
</svg>
