<svg width="40" height="42" viewBox="0 0 40 42" fill="none" xmlns="http://www.w3.org/2000/svg">
<path d="M17.6289 37.5063C9.56618 28.0138 9.55901 14.0202 17.6059 4.52057" stroke="#231F20" stroke-linecap="round" stroke-linejoin="round"/>
<path d="M20.5017 4.51956C28.5844 14.0607 28.5429 28.1332 20.377 37.627" stroke="#231F20" stroke-linecap="round" stroke-linejoin="round"/>
<path d="M1.45267 20.9992H35.1633" stroke="#231F20" stroke-linecap="round" stroke-linejoin="round"/>
<path d="M3.5096 12.4102H32.7619" stroke="#231F20" stroke-linecap="round" stroke-linejoin="round"/>
<path d="M16.9163 38.9282C8.4095 37.924 1.57598 30.9544 1.03446 22.1038C0.448523 12.5526 7.40238 4.28217 16.763 3.09311" stroke="#231F20" stroke-linecap="round" stroke-linejoin="round"/>
<path d="M33.3153 32.0708C30.4357 35.7769 26.1308 38.3499 21.1625 38.9287" stroke="#231F20" stroke-linecap="round" stroke-linejoin="round"/>
<path d="M36.9862 23.1259C36.7699 24.9654 36.2756 26.7275 35.5421 28.3649" stroke="#231F20" stroke-linecap="round" stroke-linejoin="round"/>
<path d="M35.8451 14.3524C36.4096 15.7807 36.7992 17.3007 36.9855 18.8894" stroke="#231F20" stroke-linecap="round" stroke-linejoin="round"/>
<path d="M26.5592 4.5777C29.4144 5.88566 31.8814 7.91853 33.7108 10.4557" stroke="#231F20" stroke-linecap="round" stroke-linejoin="round"/>
<path fill-rule="evenodd" clip-rule="evenodd" d="M20.4321 37.6746C21.1928 38.4353 21.1928 39.6688 20.4321 40.4295C19.6714 41.1902 18.4379 41.1902 17.6772 40.4295C16.9165 39.6688 16.9165 38.4353 17.6772 37.6746C18.4379 36.9139 19.6714 36.9139 20.4321 37.6746Z" stroke="#231F20"/>
<path fill-rule="evenodd" clip-rule="evenodd" d="M38.4886 19.6511C39.2493 20.4118 39.2493 21.6453 38.4886 22.406C37.7279 23.1667 36.4944 23.1667 35.7337 22.406C34.973 21.6453 34.973 20.4118 35.7337 19.6511C36.4944 18.8904 37.7279 18.8904 38.4886 19.6511Z" stroke="#231F20"/>
<path fill-rule="evenodd" clip-rule="evenodd" d="M17.1089 3.05328C17.0802 2.52035 17.2693 1.97739 17.6762 1.57053C18.4369 0.809822 19.6718 0.809822 20.4325 1.57053C21.1932 2.33125 21.1932 3.56472 20.4325 4.32543C19.6718 5.08614 18.4369 5.08614 17.6762 4.32543C17.3223 3.97158 17.1332 3.51601 17.1089 3.05328Z" stroke="#231F20"/>
<path d="M3.54851 30.312H32.4928" stroke="#231F20" stroke-linecap="round" stroke-linejoin="round"/>
<path fill-rule="evenodd" clip-rule="evenodd" d="M36.0039 28.9345C36.7646 29.6953 36.7646 30.9287 36.0039 31.6894C35.2431 32.4502 34.0097 32.4502 33.249 31.6894C32.4882 30.9287 32.4882 29.6953 33.249 28.9345C34.0097 28.1738 35.2431 28.1738 36.0039 28.9345Z" stroke="#231F20"/>
<path fill-rule="evenodd" clip-rule="evenodd" d="M36.1539 11.027C36.9146 11.7877 36.9146 13.0212 36.1539 13.7819C35.3932 14.5426 34.1597 14.5426 33.399 13.7819C32.6383 13.0212 32.6383 11.7877 33.399 11.027C34.1597 10.2663 35.3932 10.2663 36.1539 11.027Z" stroke="#231F20"/>
</svg>
