<svg width="18" height="18" viewBox="0 0 18 18" fill="none" xmlns="http://www.w3.org/2000/svg">
<path d="M6.75003 16C7.44039 16 8.00003 15.4404 8.00003 14.75C8.00003 14.0596 7.44039 13.5 6.75003 13.5C6.05967 13.5 5.50003 14.0596 5.50003 14.75C5.50003 15.4404 6.05967 16 6.75003 16Z" fill="#231F20"/>
<path d="M13.25 16C13.9404 16 14.5 15.4404 14.5 14.75C14.5 14.0596 13.9404 13.5 13.25 13.5C12.5597 13.5 12 14.0596 12 14.75C12 15.4404 12.5597 16 13.25 16Z" fill="#231F20"/>
<path d="M16.55 3.19501C16.5034 3.13451 16.4436 3.08547 16.3751 3.05167C16.3067 3.01787 16.2314 3.0002 16.155 3.00001H4.60499L4.37999 2.28501C4.35528 2.20824 4.31236 2.13859 4.2549 2.082C4.19743 2.02541 4.12713 1.98355 4.04999 1.96001L1.99999 1.33001C1.93696 1.31064 1.87073 1.30388 1.80508 1.3101C1.73943 1.31633 1.67565 1.33543 1.61738 1.3663C1.4997 1.42866 1.41161 1.53521 1.37249 1.66251C1.33337 1.78982 1.34643 1.92745 1.40878 2.04513C1.47114 2.16281 1.57769 2.25089 1.70499 2.29001L3.49999 2.84001L5.78999 10.075L4.97499 10.745L4.90999 10.81C4.70844 11.0434 4.59425 11.3396 4.58696 11.6478C4.57966 11.9561 4.67971 12.2574 4.86999 12.5C5.00627 12.6657 5.17945 12.7973 5.37566 12.8841C5.57188 12.9709 5.78569 13.0106 5.99999 13H14.345C14.4776 13 14.6048 12.9473 14.6985 12.8536C14.7923 12.7598 14.845 12.6326 14.845 12.5C14.845 12.3674 14.7923 12.2402 14.6985 12.1465C14.6048 12.0527 14.4776 12 14.345 12H5.91999C5.86242 11.998 5.80632 11.9813 5.75712 11.9513C5.70793 11.9213 5.66729 11.8792 5.63914 11.8289C5.61099 11.7786 5.59628 11.722 5.59643 11.6643C5.59658 11.6067 5.61159 11.5501 5.63999 11.5L6.84499 10.5H14.56C14.6742 10.5033 14.7861 10.4674 14.8771 10.3983C14.9681 10.3292 15.0326 10.231 15.06 10.12L16.66 3.62001C16.6752 3.54547 16.6732 3.46844 16.6541 3.39479C16.6351 3.32115 16.5995 3.25282 16.55 3.19501V3.19501Z" fill="#231F20"/>
</svg>
