<svg width="39" height="39" viewBox="0 0 39 39" fill="none" xmlns="http://www.w3.org/2000/svg">
<path d="M4.45081 20.7455L17.8893 34.1855" stroke="#231F20" stroke-linecap="round" stroke-linejoin="round"/>
<path d="M21.4316 35.4727L33.5945 35.4845" stroke="#231F20" stroke-linecap="round" stroke-linejoin="round"/>
<path d="M4.44891 34.1848L17.8904 20.7611" stroke="#231F20" stroke-linecap="round" stroke-linejoin="round"/>
<path d="M33.5965 19.3171H21.4246" stroke="#231F20" stroke-linecap="round" stroke-linejoin="round"/>
<path d="M17.8898 4.44925L4.45123 17.8892" stroke="#231F20" stroke-linecap="round" stroke-linejoin="round"/>
<path d="M34.1861 17.8885L20.7476 4.44852" stroke="#231F20" stroke-linecap="round" stroke-linejoin="round"/>
<path fill-rule="evenodd" clip-rule="evenodd" d="M20.7471 1.59222C21.5367 2.38185 21.5367 3.66037 20.7471 4.44852C19.9575 5.23815 18.679 5.23815 17.8893 4.44852C17.1012 3.66037 17.1012 2.38185 17.8893 1.59222C18.679 0.802593 19.9575 0.802593 20.7471 1.59222Z" stroke="#231F20"/>
<path fill-rule="evenodd" clip-rule="evenodd" d="M37.0434 1.59222C37.8331 2.38185 37.8331 3.66037 37.0434 4.44852C36.2538 5.23815 34.9753 5.23815 34.1857 4.44852C33.3975 3.66037 33.3975 2.38185 34.1857 1.59222C34.9753 0.802593 36.2538 0.802593 37.0434 1.59222Z" stroke="#231F20"/>
<path fill-rule="evenodd" clip-rule="evenodd" d="M37.0434 34.0503C37.8331 34.8399 37.8331 36.1184 37.0434 36.9066C36.2538 37.6962 34.9753 37.6962 34.1857 36.9066C33.3975 36.1184 33.3975 34.8399 34.1857 34.0503C34.9753 33.2607 36.2538 33.2607 37.0434 34.0503Z" stroke="#231F20"/>
<path fill-rule="evenodd" clip-rule="evenodd" d="M4.45084 1.59222C5.24047 2.38185 5.24047 3.66037 4.45084 4.44852C3.66121 5.23815 2.38269 5.23815 1.59306 4.44852C0.804916 3.66037 0.804916 2.38185 1.59306 1.59222C2.38269 0.802593 3.66121 0.802593 4.45084 1.59222Z" stroke="#231F20"/>
<path fill-rule="evenodd" clip-rule="evenodd" d="M20.7471 17.9036C21.5367 18.6933 21.5367 19.9718 20.7471 20.7599C19.9575 21.5495 18.679 21.5495 17.8893 20.7599C17.1012 19.9718 17.1012 18.6933 17.8893 17.9036C18.679 17.114 19.9575 17.114 20.7471 17.9036Z" stroke="#231F20"/>
<path fill-rule="evenodd" clip-rule="evenodd" d="M4.44889 34.1848C5.23852 34.9744 5.23852 36.253 4.44889 37.0411C3.65926 37.8307 2.38074 37.8307 1.59111 37.0411C0.802963 36.253 0.802963 34.9744 1.59111 34.1848C2.38074 33.3952 3.65926 33.3952 4.44889 34.1848Z" stroke="#231F20"/>
<path fill-rule="evenodd" clip-rule="evenodd" d="M20.7471 34.1848C21.5367 34.9744 21.5367 36.253 20.7471 37.0411C19.9575 37.8307 18.679 37.8307 17.8893 37.0411C17.1012 36.253 17.1012 34.9744 17.8893 34.1848C18.679 33.3952 19.9575 33.3952 20.7471 34.1848Z" stroke="#231F20"/>
<path fill-rule="evenodd" clip-rule="evenodd" d="M4.45084 17.8885C5.24047 18.6781 5.24047 19.9567 4.45084 20.7448C3.66121 21.5344 2.38269 21.5344 1.59306 20.7448C0.804916 19.9567 0.804916 18.6781 1.59306 17.8885C2.38269 17.0989 3.66121 17.0989 4.45084 17.8885Z" stroke="#231F20"/>
<path fill-rule="evenodd" clip-rule="evenodd" d="M37.0434 17.8885C37.8331 18.6781 37.8331 19.9567 37.0434 20.7448C36.2538 21.5344 34.9753 21.5344 34.1857 20.7448C33.3975 19.9567 33.3975 18.6781 34.1857 17.8885C34.9753 17.0989 36.2538 17.0989 37.0434 17.8885Z" stroke="#231F20"/>
</svg>
