<svg width="16" height="16" viewBox="0 0 16 16" fill="none" xmlns="http://www.w3.org/2000/svg">
<path d="M15 0.1875H0.625C0.279297 0.1875 0 0.466797 0 0.8125V15.1875C0 15.5332 0.279297 15.8125 0.625 15.8125H15C15.3457 15.8125 15.625 15.5332 15.625 15.1875V0.8125C15.625 0.466797 15.3457 0.1875 15 0.1875ZM13.1953 4.74805H11.9473C10.9688 4.74805 10.7793 5.21289 10.7793 5.89648V7.40234H13.1152L12.8105 9.75977H10.7793V15.8125H8.34375V9.76172H6.30664V7.40234H8.34375V5.66406C8.34375 3.64648 9.57617 2.54688 11.377 2.54688C12.2402 2.54688 12.9805 2.61133 13.1973 2.64062V4.74805H13.1953Z" fill="#262A29"/>
</svg>
