<svg width="62" height="40" viewBox="0 0 62 40" fill="none" xmlns="http://www.w3.org/2000/svg">
<path d="M37.227 26.1223C36.3265 30.1366 32.7517 32.9701 28.6566 32.9172L25.3254 38.7135C28.6273 39.3127 32.0344 38.8055 35.0205 37.2703C39.2873 35.1261 42.2968 31.0863 43.1446 26.371L37.2289 26.1223H37.227Z" fill="#231F20"/>
<path d="M19.6279 36.3754L22.9181 30.6575C19.3531 27.4265 19.0705 21.9024 22.2866 18.3209C24.7094 15.6225 28.5434 14.7139 31.9135 16.0377L35.1802 11.0971C30.9506 9.1272 26.0543 9.23098 21.9123 11.3811C14.5309 15.1486 11.4395 23.9958 15.0727 31.1686C16.1331 33.26 17.7002 35.0517 19.6279 36.3794V36.3754Z" fill="#3D46EC"/>
<path d="M30.6875 0C27.9977 0.538503 0 9.73417 0 9.73417L30.6875 19.4683L59.2193 9.73417L30.6875 0Z" fill="#231F20"/>
<path d="M57.9698 11.5613L53.8025 40.0001H61.219L57.9698 11.5613Z" fill="#231F20"/>
<path d="M44.5719 21.2552C44.8149 19.6044 43.6798 18.0683 42.0366 17.8243C40.3934 17.5802 38.8644 18.7206 38.6215 20.3714C38.3786 22.0221 39.5137 23.5582 41.1568 23.8023C42.8 24.0463 44.329 22.906 44.5719 21.2552Z" fill="#231F20"/>
</svg>
