<svg width="221" height="54" viewBox="0 0 221 54" fill="none" xmlns="http://www.w3.org/2000/svg">
<g clip-path="url(#clip0_312_709)">
<path d="M95.9084 53.6796V42.0193H97.4446V53.6796H95.9084Z" fill="#231F20"/>
<path d="M105.573 53.6796V42.0193H107.149L113.246 51.1755V42.0193H114.719V53.6796H113.143L107.046 44.5155V53.6796H105.573Z" fill="#231F20"/>
<path d="M122.212 49.9341L123.661 49.807C123.73 50.3894 123.891 50.8685 124.141 51.2417C124.391 51.615 124.781 51.9167 125.308 52.1497C125.835 52.38 126.43 52.4964 127.089 52.4964C127.674 52.4964 128.193 52.4091 128.641 52.2344C129.089 52.0597 129.424 51.8188 129.642 51.5144C129.861 51.21 129.972 50.8764 129.972 50.5164C129.972 50.1564 129.866 49.8308 129.656 49.5582C129.445 49.2855 129.097 49.0553 128.61 48.87C128.299 48.7482 127.608 48.5576 126.544 48.3008C125.477 48.0441 124.731 47.8005 124.304 47.5729C123.751 47.2817 123.337 46.9191 123.066 46.4876C122.794 46.0561 122.657 45.5717 122.657 45.037C122.657 44.4494 122.823 43.8988 123.155 43.3852C123.487 42.8717 123.972 42.4853 124.612 42.2205C125.25 41.9558 125.961 41.8235 126.741 41.8235C127.603 41.8235 128.362 41.9638 129.018 42.2417C129.674 42.5197 130.18 42.93 130.533 43.47C130.886 44.01 131.076 44.6241 131.102 45.307L129.629 45.4182C129.55 44.6823 129.281 44.1238 128.826 43.7479C128.37 43.372 127.695 43.1841 126.802 43.1841C125.909 43.1841 125.195 43.3561 124.771 43.6976C124.346 44.0391 124.133 44.452 124.133 44.9338C124.133 45.352 124.283 45.6988 124.583 45.9688C124.879 46.2388 125.651 46.5167 126.9 46.8C128.148 47.0832 129.005 47.332 129.468 47.5438C130.143 47.8561 130.644 48.2532 130.965 48.7323C131.287 49.2141 131.447 49.7647 131.447 50.392C131.447 51.0194 131.271 51.5964 130.918 52.147C130.565 52.695 130.056 53.1238 129.395 53.4282C128.733 53.7326 127.988 53.8861 127.158 53.8861C126.106 53.8861 125.226 53.7326 124.518 53.4255C123.809 53.1185 123.25 52.6553 122.847 52.0385C122.444 51.4217 122.231 50.7229 122.209 49.942L122.212 49.9341Z" fill="#231F20"/>
<path d="M141.939 53.6795V43.3931H138.113V42.0166H147.314V43.3931H143.473V53.6795H141.936H141.939Z" fill="#231F20"/>
<path d="M154.586 53.6796V42.0193H156.123V53.6796H154.586Z" fill="#231F20"/>
<path d="M167.221 53.6795V43.3931H163.395V42.0166H172.596V43.3931H168.754V53.6795H167.218H167.221Z" fill="#231F20"/>
<path d="M187.224 42.0193H188.76V48.7561C188.76 49.9287 188.629 50.8578 188.365 51.5487C188.102 52.2369 187.625 52.7981 186.934 53.2322C186.247 53.6637 185.343 53.8808 184.223 53.8808C183.103 53.8808 182.247 53.6928 181.554 53.3169C180.864 52.9411 180.368 52.3958 180.073 51.6837C179.778 50.9716 179.631 49.9949 179.631 48.7587V42.0219H181.167V48.7508C181.167 49.7646 181.262 50.5111 181.449 50.9902C181.636 51.4693 181.957 51.8399 182.416 52.0993C182.871 52.3587 183.43 52.4884 184.091 52.4884C185.222 52.4884 186.025 52.2316 186.508 51.7181C186.987 51.2046 187.227 50.2146 187.227 48.7508V42.0219L187.224 42.0193Z" fill="#231F20"/>
<path d="M199.705 53.6795V43.3931H195.88V42.0166H205.081V43.3931H201.239V53.6795H199.703H199.705Z" fill="#231F20"/>
<path d="M212.126 53.6796V42.0193H220.521V43.3958H213.662V46.9666H220.083V48.3352H213.662V52.3031H220.79V53.6796H212.126Z" fill="#231F20"/>
<path d="M50.4399 35.3059C49.2226 40.7324 44.3903 44.5627 38.8545 44.4912L34.3516 52.3265C38.815 53.1365 43.4207 52.4509 47.4573 50.3756C53.225 47.4771 57.2932 42.0162 58.4393 35.6421L50.4426 35.3059H50.4399Z" fill="#231F20"/>
<path d="M26.6498 49.1659L31.0975 41.4365C26.2783 37.0688 25.8963 29.6015 30.2438 24.76C33.5189 21.1123 38.7016 19.8841 43.2573 21.6735L47.6733 14.995C41.9557 12.332 35.3369 12.4723 29.7379 15.3788C19.7597 20.4718 15.5809 32.4312 20.4922 42.1273C21.9256 44.9544 24.044 47.3765 26.6498 49.1712V49.1659Z" fill="#3D46EC"/>
<path d="M41.5999 -0.00585938C37.9639 0.722082 0.116943 13.1527 0.116943 13.1527L41.5999 26.3112L80.1688 13.1527L41.5999 -0.00585938Z" fill="#231F20"/>
<path d="M78.48 15.6223L72.8467 54.0656H82.8723L78.48 15.6223Z" fill="#231F20"/>
<path d="M60.3685 28.7268C60.6969 26.4953 59.1625 24.4188 56.9413 24.0889C54.7201 23.759 52.6532 25.3005 52.3248 27.532C51.9964 29.7635 53.5309 31.84 55.7521 32.1699C57.9733 32.4998 60.0401 30.9583 60.3685 28.7268Z" fill="#231F20"/>
<path d="M117.815 15.9982L114.042 18.1556C112.58 16.3159 110.354 15.2544 108.011 15.2809C103.603 15.2809 100.03 18.8703 100.03 23.2988C100.03 27.7273 103.603 31.3168 108.011 31.3168C110.354 31.3432 112.577 30.2844 114.042 28.4473L117.815 30.6047C115.465 33.6594 111.832 35.4409 107.987 35.425C101.311 35.425 95.9014 29.9853 95.9041 23.2776C95.9041 16.5753 101.316 11.1409 107.987 11.1382C111.84 11.1276 115.473 12.925 117.815 15.9982Z" fill="#3D46EC"/>
<path d="M126.951 31.1552H139.382V35.0967H122.577V11.4902H126.953V31.1552H126.951Z" fill="#3D46EC"/>
<path d="M166.331 23.2962C166.547 30.2156 161.137 35.9994 154.25 36.2165C147.363 36.4335 141.605 30.9991 141.389 24.0797C141.173 17.1603 146.583 11.3765 153.47 11.1594C153.599 11.1541 153.731 11.1541 153.86 11.1541C160.639 11.0482 166.223 16.4826 166.331 23.2935V23.2962ZM145.927 23.2988C145.927 27.7141 149.489 31.2929 153.884 31.2929C158.279 31.2929 161.841 27.7141 161.841 23.2988C161.841 18.8835 158.279 15.3047 153.884 15.3047C149.534 15.2597 145.971 18.7671 145.927 23.14C145.927 23.1929 145.927 23.2459 145.927 23.2988Z" fill="#3D46EC"/>
<path d="M192.814 24.4476C192.814 31.8514 188.643 35.4382 182.301 35.4382C175.959 35.4382 171.798 31.8488 171.798 24.4476V11.4982H176.175V24.4502C176.175 29.1514 178.633 31.4199 182.303 31.4199C185.974 31.4199 188.437 29.1488 188.437 24.4502V11.4902H192.814V24.4476Z" fill="#3D46EC"/>
<path d="M220.912 23.2988C220.912 30.0064 215.342 35.1073 208.436 35.1073H198.887V11.4902H208.436C215.328 11.4902 220.914 16.5911 220.914 23.2988H220.912ZM203.269 15.4396V31.187H208.272C212.601 31.3829 216.269 28.0185 216.464 23.6694C216.659 19.3202 213.31 15.6355 208.981 15.4396C208.744 15.4291 208.509 15.4291 208.272 15.4396H203.269Z" fill="#3D46EC"/>
</g>
<defs>
<clipPath id="clip0_312_709">
<rect width="220.8" height="54" fill="white"/>
</clipPath>
</defs>
</svg>
