<svg width="16" height="16" viewBox="0 0 16 16" fill="none" xmlns="http://www.w3.org/2000/svg">
<path d="M15 0.1875H0.625C0.279297 0.1875 0 0.466797 0 0.8125V15.1875C0 15.5332 0.279297 15.8125 0.625 15.8125H15C15.3457 15.8125 15.625 15.5332 15.625 15.1875V0.8125C15.625 0.466797 15.3457 0.1875 15 0.1875ZM4.63477 13.502H2.31641V6.04492H4.63477V13.502ZM3.47656 5.02539C3.21079 5.02539 2.95099 4.94658 2.73001 4.79893C2.50904 4.65127 2.3368 4.44141 2.2351 4.19587C2.13339 3.95033 2.10678 3.68015 2.15863 3.41949C2.21048 3.15883 2.33846 2.91939 2.52639 2.73147C2.71431 2.54354 2.95375 2.41556 3.21441 2.36371C3.47507 2.31186 3.74525 2.33847 3.99079 2.44018C4.23633 2.54188 4.4462 2.71411 4.59385 2.93509C4.7415 3.15607 4.82031 3.41587 4.82031 3.68164C4.81836 4.42383 4.2168 5.02539 3.47656 5.02539ZM13.3145 13.502H10.998V9.875C10.998 9.00977 10.9824 7.89844 9.79297 7.89844C8.58789 7.89844 8.40234 8.83984 8.40234 9.8125V13.502H6.08789V6.04492H8.31055V7.06445H8.3418C8.65039 6.47852 9.40625 5.85938 10.5352 5.85938C12.8828 5.85938 13.3145 7.4043 13.3145 9.41211V13.502Z" fill="#262A29"/>
</svg>
