<svg width="19" height="18" viewBox="0 0 19 18" fill="none" xmlns="http://www.w3.org/2000/svg">
<path d="M14.8318 0.866701H10.4414C10.3049 0.866601 10.174 0.920529 10.0771 1.0167L1.3 9.79169C1.10786 9.98477 1 10.2461 1 10.5185C1 10.7909 1.10786 11.0522 1.3 11.2453L5.47857 15.4238C5.67171 15.616 5.93308 15.7239 6.20553 15.7239C6.47798 15.7239 6.73935 15.616 6.93249 15.4238L15.7071 6.65241C15.8033 6.55557 15.8572 6.4246 15.8571 6.28812V1.89527C15.8578 1.76028 15.8317 1.6265 15.7805 1.50162C15.7292 1.37674 15.6538 1.26323 15.5585 1.16763C15.4632 1.07203 15.3499 0.996223 15.2252 0.944576C15.1005 0.89293 14.9668 0.866464 14.8318 0.866701V0.866701Z" stroke="#231F20" stroke-linecap="round" stroke-linejoin="round"/>
<path d="M13 4.86671C12.7739 4.86671 12.553 4.79968 12.365 4.6741C12.1771 4.54852 12.0306 4.37003 11.9441 4.1612C11.8576 3.95237 11.835 3.72258 11.8791 3.50089C11.9232 3.2792 12.032 3.07556 12.1919 2.91573C12.3517 2.7559 12.5553 2.64705 12.777 2.60295C12.9987 2.55886 13.2285 2.58149 13.4373 2.66799C13.6462 2.75449 13.8246 2.90097 13.9502 3.08891C14.0758 3.27686 14.1428 3.49781 14.1428 3.72385C14.1428 4.02695 14.0224 4.31764 13.8081 4.53197C13.5938 4.7463 13.3031 4.86671 13 4.86671Z" fill="#231F20"/>
<path d="M8.64288 16.8667L18 7.50956C18.0465 7.46263 18.0832 7.40684 18.1077 7.34549C18.1322 7.28414 18.1442 7.21848 18.1429 7.15242V2.58099" stroke="#231F20" stroke-linecap="round" stroke-linejoin="round"/>
</svg>
