<svg width="16" height="16" viewBox="0 0 16 16" fill="none" xmlns="http://www.w3.org/2000/svg">
<path d="M13.9934 16H2.00513C1.45358 16 0.98269 15.8047 0.592446 15.4141C0.202202 15.0234 0.00708008 14.5521 0.00708008 14V2C0.00708008 1.44792 0.202202 0.976562 0.592446 0.585938C0.98269 0.195312 1.45358 0 2.00513 0H13.9934C14.545 0 15.0159 0.195312 15.4061 0.585938C15.7963 0.976562 15.9915 1.44792 15.9915 2V14C15.9915 14.5521 15.7963 15.0234 15.4061 15.4141C15.0159 15.8047 14.545 16 13.9934 16ZM12.6978 4C12.6354 4.03125 12.5417 4.09115 12.4168 4.17969C12.292 4.26823 12.1905 4.33594 12.1124 4.38281C12.0344 4.42969 11.9381 4.47917 11.8237 4.53125C11.7092 4.58333 11.5999 4.61979 11.4959 4.64062C11.1108 4.21354 10.6373 4 10.0754 4C8.85781 4 8.24903 4.51042 8.24903 5.53125V6.46875C6.57358 6.375 5.28838 5.75521 4.39342 4.60938C4.13326 4.88021 4.00318 5.17708 4.00318 5.5C4.00318 6.1875 4.25814 6.70833 4.76806 7.0625C4.69521 7.0625 4.60415 7.06771 4.49488 7.07812C4.38562 7.08854 4.29716 7.08854 4.22952 7.07812C4.16188 7.06771 4.08643 7.04167 4.00318 7C4.00318 7.47917 4.13066 7.8776 4.38562 8.19531C4.64058 8.51302 4.9918 8.71875 5.43928 8.8125C5.33521 8.9375 5.18952 9 5.0022 9C4.8357 9 4.69001 8.95312 4.56513 8.85938C4.56513 9.26562 4.76025 9.58073 5.15049 9.80469C5.54074 10.0286 5.98041 10.1458 6.46952 10.1562C6.2822 10.4375 6.00903 10.6484 5.65001 10.7891C5.29098 10.9297 4.90854 11 4.50269 11C4.357 11 4.15667 10.9635 3.90171 10.8906C3.64675 10.8177 3.51407 10.7812 3.50367 10.7812C3.67017 11.1146 4.01098 11.401 4.5261 11.6406C5.04123 11.8802 5.69423 12 6.48513 12C7.18236 12 7.83277 11.8776 8.43635 11.6328C9.03993 11.388 9.55505 11.0625 9.98171 10.6562C10.4084 10.25 10.7752 9.78646 11.0822 9.26562C11.3892 8.74479 11.6181 8.20573 11.769 7.64844C11.9199 7.09115 11.9954 6.54167 11.9954 6C11.9954 5.97917 12.0578 5.9349 12.1827 5.86719C12.3076 5.79948 12.4533 5.71094 12.6198 5.60156C12.7863 5.49219 12.9111 5.36979 12.9944 5.23438C12.4324 5.23438 12.0578 5.24479 11.8705 5.26562C12.2347 5.04688 12.5105 4.625 12.6978 4Z" fill="#262A29"/>
</svg>
