<svg width="16" height="16" viewBox="0 0 16 16" fill="none" xmlns="http://www.w3.org/2000/svg">
<path d="M14.2222 0H1.77778C0.8 0 0 0.8 0 1.77778V14.2222C0 15.2 0.8 16 1.77778 16H14.2222C15.2 16 16 15.2 16 14.2222V1.77778C16 0.8 15.2 0 14.2222 0ZM8 2.66667C9.71556 2.66667 11.1111 4.06222 11.1111 5.77778C11.1111 7.49333 9.71556 8.88889 8 8.88889C6.28444 8.88889 4.88889 7.49333 4.88889 5.77778C4.88889 4.06222 6.28444 2.66667 8 2.66667ZM14.2222 14.2222H1.77778V14.0178C1.77778 13.4667 2.02667 12.9511 2.45333 12.6133C3.97333 11.3956 5.90222 10.6667 8 10.6667C10.0978 10.6667 12.0267 11.3956 13.5467 12.6133C13.9733 12.9511 14.2222 13.4756 14.2222 14.0178V14.2222V14.2222Z" fill="#231F20"/>
</svg>
