<svg width="2044" height="425" viewBox="0 0 2044 425" fill="none" xmlns="http://www.w3.org/2000/svg">
<line x1="1" y1="361.988" x2="2043.07" y2="361.988" stroke="#3D46EC"/>
<path d="M42.6749 279.138L1 362.488L84.3498 362.214L42.6749 279.138Z" stroke="#3D46EC"/>
<path d="M267.72 279.138L226.045 362.488L309.395 362.214L267.72 279.138Z" fill="#DBDDFF" stroke="#3D46EC"/>
<path d="M379.2 139.527L267.72 362.488L490.68 361.756L379.2 139.527Z" fill="#DBDDFF" stroke="#3D46EC"/>
<path d="M991.82 227.044L1059.54 362.488L924.099 362.043L991.82 227.044Z" stroke="#3D46EC"/>
<path d="M1057.46 283.305L1017.87 362.488L1097.05 362.228L1057.46 283.305Z" stroke="#3D46EC"/>
<path d="M812.618 2L992.862 362.488L632.375 361.305L812.618 2Z" stroke="#3D46EC"/>
<path d="M1161.65 154.113L1057.46 362.488L1265.83 361.804L1161.65 154.113Z" stroke="#3D46EC"/>
<path d="M1615.9 283.305L1655.49 362.488L1576.31 362.228L1615.9 283.305Z" stroke="#3D46EC"/>
<path d="M1860.74 2L1680.5 362.488L2040.99 361.305L1860.74 2Z" stroke="#3D46EC"/>
<path d="M1511.71 154.113L1615.9 362.488L1407.53 361.804L1511.71 154.113Z" stroke="#3D46EC"/>
<path d="M2.44 383.068H4.276V390.304C4.276 391.24 4.402 391.93 4.654 392.374C4.858 392.71 5.158 393.004 5.554 393.256C5.95 393.496 6.394 393.616 6.886 393.616C7.378 393.616 7.822 393.496 8.218 393.256C8.614 393.004 8.914 392.71 9.118 392.374C9.37 391.93 9.496 391.24 9.496 390.304V383.068H11.332V390.79C11.332 392.05 10.96 393.088 10.216 393.904C9.352 394.84 8.242 395.308 6.886 395.308C5.53 395.308 4.42 394.84 3.556 393.904C2.812 393.088 2.44 392.05 2.44 390.79V383.068ZM18.5193 388.63L17.2053 389.494C16.9413 389.062 16.5813 388.846 16.1253 388.846C15.8973 388.846 15.7173 388.912 15.5853 389.044C15.4773 389.152 15.4233 389.284 15.4233 389.44C15.4233 389.62 15.5073 389.764 15.6753 389.872C15.7113 389.896 15.7473 389.92 15.7833 389.944C15.8193 389.956 15.8853 389.986 15.9813 390.034C16.0773 390.082 16.1733 390.13 16.2693 390.178L17.1693 390.628C17.6733 390.88 18.0273 391.114 18.2313 391.33C18.6033 391.702 18.7893 392.17 18.7893 392.734C18.7893 393.406 18.5673 393.982 18.1233 394.462C17.6073 395.026 16.8993 395.308 15.9993 395.308C15.3273 395.308 14.7813 395.146 14.3613 394.822C13.9053 394.486 13.5813 394.024 13.3893 393.436L14.8293 392.752C14.9493 393.1 15.0873 393.34 15.2433 393.472C15.4353 393.664 15.6933 393.76 16.0173 393.76C16.3293 393.76 16.5693 393.676 16.7373 393.508C16.9053 393.34 16.9893 393.142 16.9893 392.914C16.9893 392.698 16.9113 392.506 16.7553 392.338C16.5873 392.17 16.3353 392.014 15.9993 391.87L15.3513 391.564C14.8473 391.324 14.4993 391.108 14.3073 390.916C13.9473 390.568 13.7673 390.142 13.7673 389.638C13.7673 389.002 13.9773 388.462 14.3973 388.018C14.8533 387.538 15.4713 387.298 16.2513 387.298C16.7913 387.298 17.2593 387.43 17.6553 387.694C18.0153 387.922 18.3033 388.234 18.5193 388.63ZM25.6897 392.518L27.1657 393.346C26.8297 393.946 26.4037 394.408 25.8877 394.732C25.2997 395.116 24.5557 395.308 23.6557 395.308C22.5997 395.308 21.7477 394.984 21.0997 394.336C20.3557 393.592 19.9837 392.626 19.9837 391.438C19.9837 390.19 20.3857 389.152 21.1897 388.324C21.8737 387.64 22.7197 387.298 23.7277 387.298C24.7117 387.298 25.5217 387.628 26.1577 388.288C26.8657 389.02 27.2197 390.088 27.2197 391.492V391.708H21.7837C21.8317 392.344 22.0477 392.854 22.4317 393.238C22.7557 393.562 23.2057 393.724 23.7817 393.724C24.2497 393.724 24.6517 393.598 24.9877 393.346C25.2637 393.13 25.4977 392.854 25.6897 392.518ZM21.9097 390.268H25.4197C25.3477 389.848 25.1677 389.506 24.8797 389.242C24.5677 388.954 24.1717 388.81 23.6917 388.81C23.1877 388.81 22.7737 388.972 22.4497 389.296C22.1857 389.536 22.0057 389.86 21.9097 390.268ZM39.1324 387.838V389.818C38.4964 389.194 37.7824 388.882 36.9904 388.882C36.3184 388.882 35.7604 389.104 35.3164 389.548C34.8844 389.98 34.6684 390.562 34.6684 391.294C34.6684 392.05 34.8964 392.656 35.3524 393.112C35.7844 393.52 36.3184 393.724 36.9544 393.724C37.8304 393.724 38.5564 393.4 39.1324 392.752V394.714C38.4964 395.11 37.7284 395.308 36.8284 395.308C35.6164 395.308 34.6564 394.936 33.9484 394.192C33.2284 393.448 32.8684 392.5 32.8684 391.348C32.8684 390.16 33.2524 389.182 34.0204 388.414C34.7644 387.67 35.7784 387.298 37.0624 387.298C37.7944 387.298 38.4844 387.478 39.1324 387.838ZM46.367 388.378V387.496H48.131V395.074H46.367V394.282C45.779 394.966 45.023 395.308 44.099 395.308C42.983 395.308 42.089 394.912 41.417 394.12C40.757 393.328 40.427 392.38 40.427 391.276C40.427 390.076 40.781 389.116 41.489 388.396C42.209 387.664 43.085 387.298 44.117 387.298C45.065 387.298 45.815 387.658 46.367 388.378ZM44.333 388.882C43.709 388.882 43.199 389.116 42.803 389.584C42.419 390.052 42.227 390.628 42.227 391.312C42.227 391.984 42.419 392.554 42.803 393.022C43.199 393.49 43.709 393.724 44.333 393.724C44.933 393.724 45.437 393.514 45.845 393.094C46.265 392.674 46.475 392.086 46.475 391.33C46.475 390.55 46.265 389.95 45.845 389.53C45.437 389.098 44.933 388.882 44.333 388.882ZM54.994 388.63L53.68 389.494C53.416 389.062 53.056 388.846 52.6 388.846C52.372 388.846 52.192 388.912 52.06 389.044C51.952 389.152 51.898 389.284 51.898 389.44C51.898 389.62 51.982 389.764 52.15 389.872C52.186 389.896 52.222 389.92 52.258 389.944C52.294 389.956 52.36 389.986 52.456 390.034C52.552 390.082 52.648 390.13 52.744 390.178L53.644 390.628C54.148 390.88 54.502 391.114 54.706 391.33C55.078 391.702 55.264 392.17 55.264 392.734C55.264 393.406 55.042 393.982 54.598 394.462C54.082 395.026 53.374 395.308 52.474 395.308C51.802 395.308 51.256 395.146 50.836 394.822C50.38 394.486 50.056 394.024 49.864 393.436L51.304 392.752C51.424 393.1 51.562 393.34 51.718 393.472C51.91 393.664 52.168 393.76 52.492 393.76C52.804 393.76 53.044 393.676 53.212 393.508C53.38 393.34 53.464 393.142 53.464 392.914C53.464 392.698 53.386 392.506 53.23 392.338C53.062 392.17 52.81 392.014 52.474 391.87L51.826 391.564C51.322 391.324 50.974 391.108 50.782 390.916C50.422 390.568 50.242 390.142 50.242 389.638C50.242 389.002 50.452 388.462 50.872 388.018C51.328 387.538 51.946 387.298 52.726 387.298C53.266 387.298 53.734 387.43 54.13 387.694C54.49 387.922 54.778 388.234 54.994 388.63ZM62.1643 392.518L63.6403 393.346C63.3043 393.946 62.8783 394.408 62.3623 394.732C61.7743 395.116 61.0303 395.308 60.1303 395.308C59.0743 395.308 58.2223 394.984 57.5743 394.336C56.8303 393.592 56.4583 392.626 56.4583 391.438C56.4583 390.19 56.8603 389.152 57.6643 388.324C58.3483 387.64 59.1943 387.298 60.2023 387.298C61.1863 387.298 61.9963 387.628 62.6323 388.288C63.3403 389.02 63.6943 390.088 63.6943 391.492V391.708H58.2583C58.3063 392.344 58.5223 392.854 58.9063 393.238C59.2303 393.562 59.6803 393.724 60.2563 393.724C60.7243 393.724 61.1263 393.598 61.4623 393.346C61.7383 393.13 61.9723 392.854 62.1643 392.518ZM58.3843 390.268H61.8943C61.8223 389.848 61.6423 389.506 61.3543 389.242C61.0423 388.954 60.6463 388.81 60.1663 388.81C59.6623 388.81 59.2483 388.972 58.9243 389.296C58.6603 389.536 58.4803 389.86 58.3843 390.268ZM73.123 395.074V384.76H71.035L72.043 383.068H74.959V395.074H73.123Z" fill="#231F20"/>
<path d="M279.578 383.068H281.414V390.304C281.414 391.24 281.54 391.93 281.792 392.374C281.996 392.71 282.296 393.004 282.692 393.256C283.088 393.496 283.532 393.616 284.024 393.616C284.516 393.616 284.96 393.496 285.356 393.256C285.752 393.004 286.052 392.71 286.256 392.374C286.508 391.93 286.634 391.24 286.634 390.304V383.068H288.47V390.79C288.47 392.05 288.098 393.088 287.354 393.904C286.49 394.84 285.38 395.308 284.024 395.308C282.668 395.308 281.558 394.84 280.694 393.904C279.95 393.088 279.578 392.05 279.578 390.79V383.068ZM295.657 388.63L294.343 389.494C294.079 389.062 293.719 388.846 293.263 388.846C293.035 388.846 292.855 388.912 292.723 389.044C292.615 389.152 292.561 389.284 292.561 389.44C292.561 389.62 292.645 389.764 292.813 389.872C292.849 389.896 292.885 389.92 292.921 389.944C292.957 389.956 293.023 389.986 293.119 390.034C293.215 390.082 293.311 390.13 293.407 390.178L294.307 390.628C294.811 390.88 295.165 391.114 295.369 391.33C295.741 391.702 295.927 392.17 295.927 392.734C295.927 393.406 295.705 393.982 295.261 394.462C294.745 395.026 294.037 395.308 293.137 395.308C292.465 395.308 291.919 395.146 291.499 394.822C291.043 394.486 290.719 394.024 290.527 393.436L291.967 392.752C292.087 393.1 292.225 393.34 292.381 393.472C292.573 393.664 292.831 393.76 293.155 393.76C293.467 393.76 293.707 393.676 293.875 393.508C294.043 393.34 294.127 393.142 294.127 392.914C294.127 392.698 294.049 392.506 293.893 392.338C293.725 392.17 293.473 392.014 293.137 391.87L292.489 391.564C291.985 391.324 291.637 391.108 291.445 390.916C291.085 390.568 290.905 390.142 290.905 389.638C290.905 389.002 291.115 388.462 291.535 388.018C291.991 387.538 292.609 387.298 293.389 387.298C293.929 387.298 294.397 387.43 294.793 387.694C295.153 387.922 295.441 388.234 295.657 388.63ZM302.827 392.518L304.303 393.346C303.967 393.946 303.541 394.408 303.025 394.732C302.437 395.116 301.693 395.308 300.793 395.308C299.737 395.308 298.885 394.984 298.237 394.336C297.493 393.592 297.121 392.626 297.121 391.438C297.121 390.19 297.523 389.152 298.327 388.324C299.011 387.64 299.857 387.298 300.865 387.298C301.849 387.298 302.659 387.628 303.295 388.288C304.003 389.02 304.357 390.088 304.357 391.492V391.708H298.921C298.969 392.344 299.185 392.854 299.569 393.238C299.893 393.562 300.343 393.724 300.919 393.724C301.387 393.724 301.789 393.598 302.125 393.346C302.401 393.13 302.635 392.854 302.827 392.518ZM299.047 390.268H302.557C302.485 389.848 302.305 389.506 302.017 389.242C301.705 388.954 301.309 388.81 300.829 388.81C300.325 388.81 299.911 388.972 299.587 389.296C299.323 389.536 299.143 389.86 299.047 390.268ZM316.27 387.838V389.818C315.634 389.194 314.92 388.882 314.128 388.882C313.456 388.882 312.898 389.104 312.454 389.548C312.022 389.98 311.806 390.562 311.806 391.294C311.806 392.05 312.034 392.656 312.49 393.112C312.922 393.52 313.456 393.724 314.092 393.724C314.968 393.724 315.694 393.4 316.27 392.752V394.714C315.634 395.11 314.866 395.308 313.966 395.308C312.754 395.308 311.794 394.936 311.086 394.192C310.366 393.448 310.006 392.5 310.006 391.348C310.006 390.16 310.39 389.182 311.158 388.414C311.902 387.67 312.916 387.298 314.2 387.298C314.932 387.298 315.622 387.478 316.27 387.838ZM323.505 388.378V387.496H325.269V395.074H323.505V394.282C322.917 394.966 322.161 395.308 321.237 395.308C320.121 395.308 319.227 394.912 318.555 394.12C317.895 393.328 317.565 392.38 317.565 391.276C317.565 390.076 317.919 389.116 318.627 388.396C319.347 387.664 320.223 387.298 321.255 387.298C322.203 387.298 322.953 387.658 323.505 388.378ZM321.471 388.882C320.847 388.882 320.337 389.116 319.941 389.584C319.557 390.052 319.365 390.628 319.365 391.312C319.365 391.984 319.557 392.554 319.941 393.022C320.337 393.49 320.847 393.724 321.471 393.724C322.071 393.724 322.575 393.514 322.983 393.094C323.403 392.674 323.613 392.086 323.613 391.33C323.613 390.55 323.403 389.95 322.983 389.53C322.575 389.098 322.071 388.882 321.471 388.882ZM332.132 388.63L330.818 389.494C330.554 389.062 330.194 388.846 329.738 388.846C329.51 388.846 329.33 388.912 329.198 389.044C329.09 389.152 329.036 389.284 329.036 389.44C329.036 389.62 329.12 389.764 329.288 389.872C329.324 389.896 329.36 389.92 329.396 389.944C329.432 389.956 329.498 389.986 329.594 390.034C329.69 390.082 329.786 390.13 329.882 390.178L330.782 390.628C331.286 390.88 331.64 391.114 331.844 391.33C332.216 391.702 332.402 392.17 332.402 392.734C332.402 393.406 332.18 393.982 331.736 394.462C331.22 395.026 330.512 395.308 329.612 395.308C328.94 395.308 328.394 395.146 327.974 394.822C327.518 394.486 327.194 394.024 327.002 393.436L328.442 392.752C328.562 393.1 328.7 393.34 328.856 393.472C329.048 393.664 329.306 393.76 329.63 393.76C329.942 393.76 330.182 393.676 330.35 393.508C330.518 393.34 330.602 393.142 330.602 392.914C330.602 392.698 330.524 392.506 330.368 392.338C330.2 392.17 329.948 392.014 329.612 391.87L328.964 391.564C328.46 391.324 328.112 391.108 327.92 390.916C327.56 390.568 327.38 390.142 327.38 389.638C327.38 389.002 327.59 388.462 328.01 388.018C328.466 387.538 329.084 387.298 329.864 387.298C330.404 387.298 330.872 387.43 331.268 387.694C331.628 387.922 331.916 388.234 332.132 388.63ZM339.302 392.518L340.778 393.346C340.442 393.946 340.016 394.408 339.5 394.732C338.912 395.116 338.168 395.308 337.268 395.308C336.212 395.308 335.36 394.984 334.712 394.336C333.968 393.592 333.596 392.626 333.596 391.438C333.596 390.19 333.998 389.152 334.802 388.324C335.486 387.64 336.332 387.298 337.34 387.298C338.324 387.298 339.134 387.628 339.77 388.288C340.478 389.02 340.832 390.088 340.832 391.492V391.708H335.396C335.444 392.344 335.66 392.854 336.044 393.238C336.368 393.562 336.818 393.724 337.394 393.724C337.862 393.724 338.264 393.598 338.6 393.346C338.876 393.13 339.11 392.854 339.302 392.518ZM335.522 390.268H339.032C338.96 389.848 338.78 389.506 338.492 389.242C338.18 388.954 337.784 388.81 337.304 388.81C336.8 388.81 336.386 388.972 336.062 389.296C335.798 389.536 335.618 389.86 335.522 390.268ZM354.437 393.382V395.074H346.373L350.531 390.034C351.155 389.278 351.635 388.654 351.971 388.162C352.391 387.538 352.601 386.962 352.601 386.434C352.601 385.894 352.427 385.438 352.079 385.066C351.731 384.682 351.239 384.49 350.603 384.49C349.967 384.49 349.463 384.7 349.091 385.12C348.719 385.54 348.515 386.056 348.479 386.668H346.715C346.763 385.612 347.099 384.736 347.723 384.04C348.419 383.26 349.355 382.87 350.531 382.87C351.743 382.87 352.691 383.224 353.375 383.932C354.059 384.64 354.401 385.492 354.401 386.488C354.401 387.316 354.113 388.156 353.537 389.008C353.225 389.476 352.655 390.196 351.827 391.168L349.955 393.382H354.437Z" fill="#3D46EC"/>
<path d="M869.278 383.068H871.114V390.304C871.114 391.24 871.24 391.93 871.492 392.374C871.696 392.71 871.996 393.004 872.392 393.256C872.788 393.496 873.232 393.616 873.724 393.616C874.216 393.616 874.66 393.496 875.056 393.256C875.452 393.004 875.752 392.71 875.956 392.374C876.208 391.93 876.334 391.24 876.334 390.304V383.068H878.17V390.79C878.17 392.05 877.798 393.088 877.054 393.904C876.19 394.84 875.08 395.308 873.724 395.308C872.368 395.308 871.258 394.84 870.394 393.904C869.65 393.088 869.278 392.05 869.278 390.79V383.068ZM885.357 388.63L884.043 389.494C883.779 389.062 883.419 388.846 882.963 388.846C882.735 388.846 882.555 388.912 882.423 389.044C882.315 389.152 882.261 389.284 882.261 389.44C882.261 389.62 882.345 389.764 882.513 389.872C882.549 389.896 882.585 389.92 882.621 389.944C882.657 389.956 882.723 389.986 882.819 390.034C882.915 390.082 883.011 390.13 883.107 390.178L884.007 390.628C884.511 390.88 884.865 391.114 885.069 391.33C885.441 391.702 885.627 392.17 885.627 392.734C885.627 393.406 885.405 393.982 884.961 394.462C884.445 395.026 883.737 395.308 882.837 395.308C882.165 395.308 881.619 395.146 881.199 394.822C880.743 394.486 880.419 394.024 880.227 393.436L881.667 392.752C881.787 393.1 881.925 393.34 882.081 393.472C882.273 393.664 882.531 393.76 882.855 393.76C883.167 393.76 883.407 393.676 883.575 393.508C883.743 393.34 883.827 393.142 883.827 392.914C883.827 392.698 883.749 392.506 883.593 392.338C883.425 392.17 883.173 392.014 882.837 391.87L882.189 391.564C881.685 391.324 881.337 391.108 881.145 390.916C880.785 390.568 880.605 390.142 880.605 389.638C880.605 389.002 880.815 388.462 881.235 388.018C881.691 387.538 882.309 387.298 883.089 387.298C883.629 387.298 884.097 387.43 884.493 387.694C884.853 387.922 885.141 388.234 885.357 388.63ZM892.528 392.518L894.004 393.346C893.668 393.946 893.242 394.408 892.726 394.732C892.138 395.116 891.394 395.308 890.494 395.308C889.438 395.308 888.586 394.984 887.938 394.336C887.194 393.592 886.822 392.626 886.822 391.438C886.822 390.19 887.224 389.152 888.028 388.324C888.712 387.64 889.558 387.298 890.566 387.298C891.55 387.298 892.36 387.628 892.996 388.288C893.704 389.02 894.058 390.088 894.058 391.492V391.708H888.622C888.67 392.344 888.886 392.854 889.27 393.238C889.594 393.562 890.044 393.724 890.62 393.724C891.088 393.724 891.49 393.598 891.826 393.346C892.102 393.13 892.336 392.854 892.528 392.518ZM888.748 390.268H892.258C892.186 389.848 892.006 389.506 891.718 389.242C891.406 388.954 891.01 388.81 890.53 388.81C890.026 388.81 889.612 388.972 889.288 389.296C889.024 389.536 888.844 389.86 888.748 390.268ZM905.97 387.838V389.818C905.334 389.194 904.62 388.882 903.828 388.882C903.156 388.882 902.598 389.104 902.154 389.548C901.722 389.98 901.506 390.562 901.506 391.294C901.506 392.05 901.734 392.656 902.19 393.112C902.622 393.52 903.156 393.724 903.792 393.724C904.668 393.724 905.394 393.4 905.97 392.752V394.714C905.334 395.11 904.566 395.308 903.666 395.308C902.454 395.308 901.494 394.936 900.786 394.192C900.066 393.448 899.706 392.5 899.706 391.348C899.706 390.16 900.09 389.182 900.858 388.414C901.602 387.67 902.616 387.298 903.9 387.298C904.632 387.298 905.322 387.478 905.97 387.838ZM913.205 388.378V387.496H914.969V395.074H913.205V394.282C912.617 394.966 911.861 395.308 910.937 395.308C909.821 395.308 908.927 394.912 908.255 394.12C907.595 393.328 907.265 392.38 907.265 391.276C907.265 390.076 907.619 389.116 908.327 388.396C909.047 387.664 909.923 387.298 910.955 387.298C911.903 387.298 912.653 387.658 913.205 388.378ZM911.171 388.882C910.547 388.882 910.037 389.116 909.641 389.584C909.257 390.052 909.065 390.628 909.065 391.312C909.065 391.984 909.257 392.554 909.641 393.022C910.037 393.49 910.547 393.724 911.171 393.724C911.771 393.724 912.275 393.514 912.683 393.094C913.103 392.674 913.313 392.086 913.313 391.33C913.313 390.55 913.103 389.95 912.683 389.53C912.275 389.098 911.771 388.882 911.171 388.882ZM921.832 388.63L920.518 389.494C920.254 389.062 919.894 388.846 919.438 388.846C919.21 388.846 919.03 388.912 918.898 389.044C918.79 389.152 918.736 389.284 918.736 389.44C918.736 389.62 918.82 389.764 918.988 389.872C919.024 389.896 919.06 389.92 919.096 389.944C919.132 389.956 919.198 389.986 919.294 390.034C919.39 390.082 919.486 390.13 919.582 390.178L920.482 390.628C920.986 390.88 921.34 391.114 921.544 391.33C921.916 391.702 922.102 392.17 922.102 392.734C922.102 393.406 921.88 393.982 921.436 394.462C920.92 395.026 920.212 395.308 919.312 395.308C918.64 395.308 918.094 395.146 917.674 394.822C917.218 394.486 916.894 394.024 916.702 393.436L918.142 392.752C918.262 393.1 918.4 393.34 918.556 393.472C918.748 393.664 919.006 393.76 919.33 393.76C919.642 393.76 919.882 393.676 920.05 393.508C920.218 393.34 920.302 393.142 920.302 392.914C920.302 392.698 920.224 392.506 920.068 392.338C919.9 392.17 919.648 392.014 919.312 391.87L918.664 391.564C918.16 391.324 917.812 391.108 917.62 390.916C917.26 390.568 917.08 390.142 917.08 389.638C917.08 389.002 917.29 388.462 917.71 388.018C918.166 387.538 918.784 387.298 919.564 387.298C920.104 387.298 920.572 387.43 920.968 387.694C921.328 387.922 921.616 388.234 921.832 388.63ZM929.002 392.518L930.478 393.346C930.142 393.946 929.716 394.408 929.2 394.732C928.612 395.116 927.868 395.308 926.968 395.308C925.912 395.308 925.06 394.984 924.412 394.336C923.668 393.592 923.296 392.626 923.296 391.438C923.296 390.19 923.698 389.152 924.502 388.324C925.186 387.64 926.032 387.298 927.04 387.298C928.024 387.298 928.834 387.628 929.47 388.288C930.178 389.02 930.532 390.088 930.532 391.492V391.708H925.096C925.144 392.344 925.36 392.854 925.744 393.238C926.068 393.562 926.518 393.724 927.094 393.724C927.562 393.724 927.964 393.598 928.3 393.346C928.576 393.13 928.81 392.854 929.002 392.518ZM925.222 390.268H928.732C928.66 389.848 928.48 389.506 928.192 389.242C927.88 388.954 927.484 388.81 927.004 388.81C926.5 388.81 926.086 388.972 925.762 389.296C925.498 389.536 925.318 389.86 925.222 390.268ZM938.449 386.128H936.685C936.733 385.18 937.075 384.4 937.711 383.788C938.347 383.176 939.223 382.87 940.339 382.87C941.431 382.87 942.295 383.2 942.931 383.86C943.507 384.448 943.795 385.21 943.795 386.146C943.795 386.746 943.657 387.274 943.381 387.73C943.105 388.162 942.745 388.498 942.301 388.738C942.805 388.93 943.201 389.248 943.489 389.692C943.825 390.184 943.993 390.802 943.993 391.546C943.993 392.65 943.651 393.544 942.967 394.228C942.271 394.924 941.293 395.272 940.033 395.272C938.869 395.272 937.975 394.936 937.351 394.264C936.763 393.64 936.421 392.824 936.325 391.816H938.089C938.185 392.356 938.401 392.788 938.737 393.112C939.121 393.472 939.607 393.652 940.195 393.652C940.759 393.652 941.227 393.484 941.599 393.148C942.019 392.752 942.229 392.188 942.229 391.456C942.229 390.856 942.049 390.382 941.689 390.034C941.317 389.674 940.801 389.494 940.141 389.494H939.781V387.946H940.033C940.705 387.946 941.215 387.772 941.563 387.424C941.875 387.112 942.031 386.686 942.031 386.146C942.031 385.654 941.875 385.252 941.563 384.94C941.251 384.64 940.825 384.49 940.285 384.49C939.709 384.49 939.265 384.652 938.953 384.976C938.833 385.108 938.731 385.27 938.647 385.462C938.563 385.642 938.509 385.786 938.485 385.894C938.461 386.002 938.449 386.08 938.449 386.128Z" fill="#231F20"/>
<path d="M1644.43 383.068H1646.27V390.304C1646.27 391.24 1646.39 391.93 1646.64 392.374C1646.85 392.71 1647.15 393.004 1647.54 393.256C1647.94 393.496 1648.38 393.616 1648.88 393.616C1649.37 393.616 1649.81 393.496 1650.21 393.256C1650.6 393.004 1650.9 392.71 1651.11 392.374C1651.36 391.93 1651.49 391.24 1651.49 390.304V383.068H1653.32V390.79C1653.32 392.05 1652.95 393.088 1652.21 393.904C1651.34 394.84 1650.23 395.308 1648.88 395.308C1647.52 395.308 1646.41 394.84 1645.55 393.904C1644.8 393.088 1644.43 392.05 1644.43 390.79V383.068ZM1660.51 388.63L1659.2 389.494C1658.93 389.062 1658.57 388.846 1658.12 388.846C1657.89 388.846 1657.71 388.912 1657.58 389.044C1657.47 389.152 1657.41 389.284 1657.41 389.44C1657.41 389.62 1657.5 389.764 1657.67 389.872C1657.7 389.896 1657.74 389.92 1657.77 389.944C1657.81 389.956 1657.88 389.986 1657.97 390.034C1658.07 390.082 1658.16 390.13 1658.26 390.178L1659.16 390.628C1659.66 390.88 1660.02 391.114 1660.22 391.33C1660.59 391.702 1660.78 392.17 1660.78 392.734C1660.78 393.406 1660.56 393.982 1660.11 394.462C1659.6 395.026 1658.89 395.308 1657.99 395.308C1657.32 395.308 1656.77 395.146 1656.35 394.822C1655.9 394.486 1655.57 394.024 1655.38 393.436L1656.82 392.752C1656.94 393.1 1657.08 393.34 1657.23 393.472C1657.43 393.664 1657.68 393.76 1658.01 393.76C1658.32 393.76 1658.56 393.676 1658.73 393.508C1658.9 393.34 1658.98 393.142 1658.98 392.914C1658.98 392.698 1658.9 392.506 1658.75 392.338C1658.58 392.17 1658.33 392.014 1657.99 391.87L1657.34 391.564C1656.84 391.324 1656.49 391.108 1656.3 390.916C1655.94 390.568 1655.76 390.142 1655.76 389.638C1655.76 389.002 1655.97 388.462 1656.39 388.018C1656.84 387.538 1657.46 387.298 1658.24 387.298C1658.78 387.298 1659.25 387.43 1659.65 387.694C1660.01 387.922 1660.29 388.234 1660.51 388.63ZM1667.68 392.518L1669.16 393.346C1668.82 393.946 1668.39 394.408 1667.88 394.732C1667.29 395.116 1666.55 395.308 1665.65 395.308C1664.59 395.308 1663.74 394.984 1663.09 394.336C1662.35 393.592 1661.97 392.626 1661.97 391.438C1661.97 390.19 1662.38 389.152 1663.18 388.324C1663.86 387.64 1664.71 387.298 1665.72 387.298C1666.7 387.298 1667.51 387.628 1668.15 388.288C1668.86 389.02 1669.21 390.088 1669.21 391.492V391.708H1663.77C1663.82 392.344 1664.04 392.854 1664.42 393.238C1664.75 393.562 1665.2 393.724 1665.77 393.724C1666.24 393.724 1666.64 393.598 1666.98 393.346C1667.25 393.13 1667.49 392.854 1667.68 392.518ZM1663.9 390.268H1667.41C1667.34 389.848 1667.16 389.506 1666.87 389.242C1666.56 388.954 1666.16 388.81 1665.68 388.81C1665.18 388.81 1664.76 388.972 1664.44 389.296C1664.18 389.536 1664 389.86 1663.9 390.268ZM1681.12 387.838V389.818C1680.49 389.194 1679.77 388.882 1678.98 388.882C1678.31 388.882 1677.75 389.104 1677.31 389.548C1676.87 389.98 1676.66 390.562 1676.66 391.294C1676.66 392.05 1676.89 392.656 1677.34 393.112C1677.77 393.52 1678.31 393.724 1678.94 393.724C1679.82 393.724 1680.55 393.4 1681.12 392.752V394.714C1680.49 395.11 1679.72 395.308 1678.82 395.308C1677.61 395.308 1676.65 394.936 1675.94 394.192C1675.22 393.448 1674.86 392.5 1674.86 391.348C1674.86 390.16 1675.24 389.182 1676.01 388.414C1676.75 387.67 1677.77 387.298 1679.05 387.298C1679.78 387.298 1680.47 387.478 1681.12 387.838ZM1688.36 388.378V387.496H1690.12V395.074H1688.36V394.282C1687.77 394.966 1687.01 395.308 1686.09 395.308C1684.97 395.308 1684.08 394.912 1683.41 394.12C1682.75 393.328 1682.42 392.38 1682.42 391.276C1682.42 390.076 1682.77 389.116 1683.48 388.396C1684.2 387.664 1685.08 387.298 1686.11 387.298C1687.06 387.298 1687.81 387.658 1688.36 388.378ZM1686.32 388.882C1685.7 388.882 1685.19 389.116 1684.79 389.584C1684.41 390.052 1684.22 390.628 1684.22 391.312C1684.22 391.984 1684.41 392.554 1684.79 393.022C1685.19 393.49 1685.7 393.724 1686.32 393.724C1686.92 393.724 1687.43 393.514 1687.84 393.094C1688.26 392.674 1688.47 392.086 1688.47 391.33C1688.47 390.55 1688.26 389.95 1687.84 389.53C1687.43 389.098 1686.92 388.882 1686.32 388.882ZM1696.98 388.63L1695.67 389.494C1695.41 389.062 1695.05 388.846 1694.59 388.846C1694.36 388.846 1694.18 388.912 1694.05 389.044C1693.94 389.152 1693.89 389.284 1693.89 389.44C1693.89 389.62 1693.97 389.764 1694.14 389.872C1694.18 389.896 1694.21 389.92 1694.25 389.944C1694.28 389.956 1694.35 389.986 1694.45 390.034C1694.54 390.082 1694.64 390.13 1694.73 390.178L1695.63 390.628C1696.14 390.88 1696.49 391.114 1696.7 391.33C1697.07 391.702 1697.25 392.17 1697.25 392.734C1697.25 393.406 1697.03 393.982 1696.59 394.462C1696.07 395.026 1695.36 395.308 1694.46 395.308C1693.79 395.308 1693.25 395.146 1692.83 394.822C1692.37 394.486 1692.05 394.024 1691.85 393.436L1693.29 392.752C1693.41 393.1 1693.55 393.34 1693.71 393.472C1693.9 393.664 1694.16 393.76 1694.48 393.76C1694.79 393.76 1695.03 393.676 1695.2 393.508C1695.37 393.34 1695.45 393.142 1695.45 392.914C1695.45 392.698 1695.38 392.506 1695.22 392.338C1695.05 392.17 1694.8 392.014 1694.46 391.87L1693.82 391.564C1693.31 391.324 1692.96 391.108 1692.77 390.916C1692.41 390.568 1692.23 390.142 1692.23 389.638C1692.23 389.002 1692.44 388.462 1692.86 388.018C1693.32 387.538 1693.94 387.298 1694.72 387.298C1695.26 387.298 1695.72 387.43 1696.12 387.694C1696.48 387.922 1696.77 388.234 1696.98 388.63ZM1704.15 392.518L1705.63 393.346C1705.29 393.946 1704.87 394.408 1704.35 394.732C1703.76 395.116 1703.02 395.308 1702.12 395.308C1701.06 395.308 1700.21 394.984 1699.56 394.336C1698.82 393.592 1698.45 392.626 1698.45 391.438C1698.45 390.19 1698.85 389.152 1699.65 388.324C1700.34 387.64 1701.18 387.298 1702.19 387.298C1703.18 387.298 1703.99 387.628 1704.62 388.288C1705.33 389.02 1705.68 390.088 1705.68 391.492V391.708H1700.25C1700.3 392.344 1700.51 392.854 1700.9 393.238C1701.22 393.562 1701.67 393.724 1702.25 393.724C1702.71 393.724 1703.12 393.598 1703.45 393.346C1703.73 393.13 1703.96 392.854 1704.15 392.518ZM1700.37 390.268H1703.88C1703.81 389.848 1703.63 389.506 1703.34 389.242C1703.03 388.954 1702.64 388.81 1702.16 388.81C1701.65 388.81 1701.24 388.972 1700.91 389.296C1700.65 389.536 1700.47 389.86 1700.37 390.268ZM1718.68 382.186V391.114H1719.97V392.806H1718.68V395.074H1716.91V392.806H1710.97L1718.68 382.186ZM1714.18 391.15H1716.91V387.28L1714.18 391.15Z" fill="#231F20"/>
</svg>
